<svg width="403" height="76" viewBox="0 0 403 76" fill="none" xmlns="http://www.w3.org/2000/svg">
<g id="logo-light">
<path id="icon" fill-rule="evenodd" clip-rule="evenodd" d="M63.1689 66.4707C56.4658 72.4004 47.6533 76 38 76C17.0127 76 0 58.9863 0 38C0 17.0137 17.0127 0 38 0C58.9873 0 76 17.0137 76 38V75.5L63.1689 66.4707ZM63 38C63 51.8066 51.8066 63 38 63C24.1934 63 13 51.8066 13 38C13 24.1934 24.1934 13 38 13C51.8066 13 63 24.1934 63 38Z" fill="#0074FF"/>
<g id="text">
<path id="d" fill-rule="evenodd" clip-rule="evenodd" d="M403.002 16L394.503 13L394.502 30.2754C392.001 28.8281 389.098 28 386 28C376.611 28 369 35.6113 369 45C369 54.3887 376.611 62 386 62C395.389 62 403 54.3887 403.002 45V16ZM394.5 45.25C394.5 49.8066 390.807 53.5 386.25 53.5C381.693 53.5 378 49.8066 378 45.25C378 40.6934 381.693 37 386.25 37C390.807 37 394.5 40.6934 394.5 45.25Z" fill="#0074FF"/>
<path id="i" d="M360.512 27L352.012 30L352.012 62H360.511L360.512 27Z" fill="#0074FF"/>
<path id="A2" fill-rule="evenodd" clip-rule="evenodd" d="M331.725 51.5L335.5 62H345.5L328 15H319L301.5 62H311.5L315.275 51.5H331.725ZM328.669 43L323.5 28.625L318.331 43H328.669Z" fill="#0074FF"/>
<path id="t" d="M278.5 21L287 18V28H297V36.5H287V45C287 45 287.5 48.5 290 51C292.5 53.5 296.5 53.5 296.5 53.5V62C296.5 62 290 62.5 284 57.5C278 52.5 278.5 45 278.5 45V21Z" fill="#101021"/>
<path id="o" fill-rule="evenodd" clip-rule="evenodd" d="M253 62C262.389 62 270 54.3888 270 45C270 35.6112 262.389 28 253 28C243.611 28 236 35.6112 236 45C236 54.3888 243.611 62 253 62ZM253.25 53.5C257.806 53.5 261.5 49.8063 261.5 45.25C261.5 40.6937 257.806 37 253.25 37C248.694 37 245 40.6937 245 45.25C245 49.8063 248.694 53.5 253.25 53.5Z" fill="#101021"/>
<path id="n2" d="M198 28H206.5V30.498C206.5 30.498 208 29 212.5 28.998C220.5 28.998 227.5 34.5 227.5 43V62H219.5V43C219.5 43 219.5 38 212.5 38C208 38 206.5 42.998 206.5 42.998V62H198V28Z" fill="#101021"/>
<path id="n1" d="M158.5 28H167V30.498C167 30.498 168.5 29 173 28.998C181 28.998 188 34.5 188 43V62H180V43C180 43 180 38 173 38C168.5 38 167 42.998 167 42.998V62H158.5V28Z" fill="#101021"/>
<path id="A1" fill-rule="evenodd" clip-rule="evenodd" d="M138.225 51.5L142 62H152L134.5 15H125.5L108 62H118L121.775 51.5H138.225ZM135.169 43L130 28.625L124.831 43H135.169Z" fill="#101021"/>
</g>
</g>
</svg>
