<svg width="15" height="15" viewBox="0 0 15 15" fill="none" xmlns="http://www.w3.org/2000/svg">
<path d="M1.60069 1C1.26894 1 1 1.26894 1 1.60069L1 4.9043C1 5.23605 1.26894 5.50499 1.60069 5.50499C1.93244 5.50499 2.20138 5.23605 2.20138 4.9043L2.20138 3.14527L5.14027 6.08416C5.40092 6.34481 5.82352 6.34481 6.08416 6.08416C6.34481 5.82352 6.34481 5.40092 6.08416 5.14027L3.14527 2.20138L4.9043 2.20138C5.23605 2.20138 5.50499 1.93244 5.50499 1.60069C5.50499 1.26894 5.23605 1 4.9043 1L1.60069 1Z" fill="black"/>
<path d="M9.85972 8.91583C9.59908 8.65519 9.17648 8.65519 8.91583 8.91583C8.65519 9.17648 8.65519 9.59908 8.91583 9.85972L11.8547 12.7986H10.0957C9.76395 12.7986 9.49501 13.0676 9.49501 13.3993C9.49501 13.7311 9.76395 14 10.0957 14H13.3993C13.7311 14 14 13.7311 14 13.3993V10.0957C14 9.76395 13.7311 9.49501 13.3993 9.49501C13.0676 9.49501 12.7986 9.76395 12.7986 10.0957V11.8547L9.85972 8.91583Z" fill="black"/>
<path d="M8.91583 6.08416C8.65519 5.82352 8.65519 5.40092 8.91583 5.14027L11.8547 2.20138H10.0957C9.76395 2.20138 9.49501 1.93244 9.49501 1.60069C9.49501 1.26894 9.76395 1 10.0957 1H13.3993C13.7311 1 14 1.26894 14 1.60069V4.9043C14 5.23605 13.7311 5.50499 13.3993 5.50499C13.0676 5.50499 12.7986 5.23605 12.7986 4.9043V3.14527L9.85972 6.08416C9.59908 6.34481 9.17648 6.34481 8.91583 6.08416Z" fill="black"/>
<path d="M2.20138 10.0957L2.20138 11.8547L5.14027 8.91583C5.40092 8.65519 5.82352 8.65519 6.08416 8.91583C6.34481 9.17648 6.34481 9.59908 6.08416 9.85972L3.14527 12.7986H4.9043C5.23605 12.7986 5.50499 13.0676 5.50499 13.3993C5.50499 13.7311 5.23605 14 4.9043 14L1.60069 14C1.26894 14 1 13.7311 1 13.3993L1 10.0957C1 9.76395 1.26894 9.49501 1.60069 9.49501C1.93244 9.49501 2.20138 9.76395 2.20138 10.0957Z" fill="black"/>
</svg>
