<svg width="12" height="12" viewBox="0 0 12 12" fill="none" xmlns="http://www.w3.org/2000/svg">
<g id="red">
<rect width="12" height="12" rx="6" fill="#FF5F58"/>
<path id="icon" d="M4.12444 3.27534C3.89012 3.04103 3.51023 3.04103 3.27591 3.27534C3.04159 3.50965 3.04159 3.88955 3.2759 4.12386L5.14949 5.99745L3.27534 7.87161C3.04103 8.10593 3.04103 8.48582 3.27534 8.72013C3.50965 8.95446 3.88955 8.95446 4.12386 8.72013L5.99802 6.84599L7.8721 8.72007C8.10642 8.95438 8.48631 8.95437 8.72063 8.72007C8.95495 8.48575 8.95495 8.10585 8.72063 7.87153L6.84656 5.99745L8.72007 4.12394C8.95438 3.88963 8.95437 3.50973 8.72007 3.27541C8.48575 3.0411 8.10585 3.0411 7.87153 3.27541L5.99802 5.14893L4.12444 3.27534Z" fill="#980000"/>
</g>
</svg>
